<svg width="94" height="88" viewBox="0 0 94 88" fill="none" xmlns="http://www.w3.org/2000/svg">
<path d="M93.875 19.0001V22.1251C93.875 22.5395 93.7104 22.9369 93.4174 23.2299C93.1243 23.5229 92.7269 23.6876 92.3125 23.6876H87.625V26.0313C87.625 27.3256 86.5756 28.3751 85.2812 28.3751H8.71875C7.42441 28.3751 6.375 27.3256 6.375 26.0313V23.6876H1.6875C1.2731 23.6876 0.875671 23.5229 0.582646 23.2299C0.28962 22.9369 0.125 22.5395 0.125 22.1251V19.0001C0.125002 18.6909 0.216695 18.3888 0.388477 18.1318C0.560259 17.8748 0.80441 17.6745 1.09004 17.5563L46.4025 0.368803C46.7851 0.210399 47.2149 0.210399 47.5975 0.368803L92.91 17.5563C93.1956 17.6745 93.4397 17.8748 93.6115 18.1318C93.7833 18.3888 93.875 18.6909 93.875 19.0001V19.0001ZM89.1875 78.3751H4.8125C2.22363 78.3751 0.125 80.4737 0.125 83.0626V86.1876C0.125 86.602 0.28962 86.9994 0.582646 87.2924C0.875671 87.5854 1.2731 87.7501 1.6875 87.7501H92.3125C92.7269 87.7501 93.1243 87.5854 93.4174 87.2924C93.7104 86.9994 93.875 86.602 93.875 86.1876V83.0626C93.875 80.4737 91.7764 78.3751 89.1875 78.3751ZM15.75 31.5001V69.0001H8.71875C7.42441 69.0001 6.375 70.0495 6.375 71.3438V75.2501H87.625V71.3438C87.625 70.0495 86.5756 69.0001 85.2812 69.0001H78.25V31.5001H65.75V69.0001H53.25V31.5001H40.75V69.0001H28.25V31.5001H15.75Z" fill="#817474"/>
</svg>
