<svg id="Layer_1" data-name="Layer 1" xmlns="http://www.w3.org/2000/svg" viewBox="0 0 748 748.05"><defs><style>.cls-1{fill:#181880;}</style></defs><title>logo</title><path class="cls-1" d="M1290.13,434.07,1065.9,209.86a149.71,149.71,0,0,0-211.8,0L629.86,434.07a149.85,149.85,0,0,0,0,211.86L854.1,870.16a149.73,149.73,0,0,0,211.8,0l224.23-224.21a149.83,149.83,0,0,0,0-211.86Zm-59.45,152.39L1006.45,810.69c-24.85,24.8-68.15,24.8-92.91,0L689.31,586.46a65.69,65.69,0,0,1,0-92.92L913.54,269.31a65.68,65.68,0,0,1,92.91,0l224.23,224.23a65.79,65.79,0,0,1,0,92.92Z" transform="translate(-586 -165.97)"/><path class="cls-1" d="M1005.51,482.86a119.37,119.37,0,0,0-91.07.05,116.94,116.94,0,0,0-38.55,25.79l-80,80,59.4,59.47,80.11-80.07a34.38,34.38,0,0,1,11.3-7.55,35,35,0,0,1,26.64,0,35.51,35.51,0,0,1,11.39,7.59l80,80.05,59.4-59.47-79.92-80A119,119,0,0,0,1005.51,482.86Z" transform="translate(-586 -165.97)"/></svg>