<svg width="100" height="100" viewBox="0 0 100 100" fill="none" xmlns="http://www.w3.org/2000/svg">
<path d="M50 20.3125C39.3145 20.3125 30.6452 28.7109 30.6452 39.0625C30.6452 49.4141 39.3145 57.8125 50 57.8125C60.6855 57.8125 69.3548 49.4141 69.3548 39.0625C69.3548 28.7109 60.6855 20.3125 50 20.3125ZM50 48.4375C44.6573 48.4375 40.3226 44.2383 40.3226 39.0625C40.3226 33.8867 44.6573 29.6875 50 29.6875C55.3427 29.6875 59.6774 33.8867 59.6774 39.0625C59.6774 44.2383 55.3427 48.4375 50 48.4375ZM50 1.5625C22.379 1.5625 0 23.2422 0 50C0 76.7578 22.379 98.4375 50 98.4375C77.621 98.4375 100 76.7578 100 50C100 23.2422 77.621 1.5625 50 1.5625ZM50 89.0625C39.9798 89.0625 30.8266 85.4883 23.7702 79.6094C26.7742 75.1172 31.9153 72.0703 37.8024 71.8945C41.996 73.1445 45.9879 73.7695 50 73.7695C54.0121 73.7695 58.004 73.1641 62.1976 71.8945C68.0847 72.0898 73.2258 75.1172 76.2298 79.6094C69.1734 85.4883 60.0202 89.0625 50 89.0625V89.0625ZM82.8024 72.6367C77.8831 66.5039 70.2823 62.5 61.6129 62.5C59.5565 62.5 56.371 64.375 50 64.375C43.6492 64.375 40.4435 62.5 38.3871 62.5C29.7379 62.5 22.1371 66.5039 17.1976 72.6367C12.4798 66.25 9.67742 58.4375 9.67742 50C9.67742 28.457 27.7621 10.9375 50 10.9375C72.2379 10.9375 90.3226 28.457 90.3226 50C90.3226 58.4375 87.5202 66.25 82.8024 72.6367Z" fill="#817474"/>
</svg>
