<svg xmlns="http://www.w3.org/2000/svg" viewBox="0 0 1920 1080">
  <defs>
    <style>.cls-1 {
      fill: white;
    }

    .cls-2 {
      fill: #181880;
    }

    .cls-3 {
      fill: #1a1a87;
    }

    .cls-4 {
      fill: #1a1a87;
    }</style>
  </defs>
  <g id="Layer_1-2" data-name="Layer 1">
    <rect id="bg" class="cls-1" width="1920" height="1080" transform="translate(1920 1080) rotate(180)"/>
    <polygon class="cls-2" points="0 188.29 93.54 91.81 0 54.91 0 188.29"/>
    <polygon class="cls-2" points="348.5 192.38 328.62 184.54 145.84 372.34 412.71 444.65 348.5 192.38"/>
    <polygon class="cls-3" points="412.71 444.65 1151.84 0 660.98 0 348.5 192.38 412.71 444.65"/>
    <polygon class="cls-4"
             points="182.54 0 93.54 91.81 0 188.29 0 332.82 0 522.17 145.84 372.34 328.62 184.54 508.24 0 182.54 0"/>
    <polygon class="cls-2"
             points="1501.66 611.28 1522.37 692.63 1565.88 863.55 1585.75 871.39 1768.53 683.59 1581.53 632.92 1501.66 611.28"/>
    <polygon class="cls-2" points="1820.83 964.13 1920 1003.25 1920 861.84 1820.83 964.13"/>
    <polygon class="cls-3"
             points="1522.37 692.63 1501.66 611.28 722.52 1080 1022.95 1080 1214.29 1080 1565.88 863.55 1522.37 692.63"/>
    <polygon class="cls-4"
             points="1768.53 683.59 1585.75 871.39 1382.7 1080 1496.59 1080 1708.5 1080 1820.83 964.13 1920 861.84 1920 724.64 1920 700.98 1920 527.98 1768.53 683.59"/>
  </g>
</svg>
